<?xml version="1.0" standalone="no"?>
<!DOCTYPE svg PUBLIC "-//W3C//DTD SVG 20010904//EN"
 "http://www.w3.org/TR/2001/REC-SVG-20010904/DTD/svg10.dtd">
<svg version="1.0" xmlns="http://www.w3.org/2000/svg"
 width="800.000000pt" height="800.000000pt" viewBox="0 0 800.000000 800.000000"
 preserveAspectRatio="xMidYMid meet">
<g transform="translate(0.000000,800.000000) scale(0.100000,-0.100000)"
fill="#ffffff" stroke="none">
<path d="M3675 7994 c-148 -15 -321 -39 -451 -65 -1590 -309 -2844 -1563
-3153 -3153 -58 -298 -66 -389 -66 -776 0 -387 8 -478 66 -776 309 -1590 1563
-2844 3153 -3153 298 -58 389 -66 776 -66 387 0 478 8 776 66 1590 309 2844
1563 3153 3153 58 298 66 389 66 776 0 387 -8 478 -66 776 -309 1590 -1564
2844 -3153 3153 -284 55 -375 64 -731 66 -181 2 -348 1 -370 -1z m500 -529
c159 -331 225 -604 225 -933 0 -303 -50 -536 -165 -767 -98 -197 -224 -368
-655 -895 -273 -334 -480 -604 -586 -765 -214 -326 -374 -744 -457 -1199 l-23
-127 -51 93 c-109 198 -202 451 -249 671 -31 150 -43 421 -25 562 42 310 203
714 415 1035 104 158 154 220 411 510 576 652 790 961 909 1310 66 195 136
543 136 680 l0 45 27 -45 c14 -25 54 -103 88 -175z m654 -1177 c147 -274 239
-551 272 -821 19 -157 7 -463 -25 -613 -75 -354 -184 -540 -656 -1119 -592
-726 -721 -902 -859 -1175 -156 -307 -252 -609 -329 -1030 l-8 -45 -46 85
c-112 203 -206 459 -255 687 -25 116 -27 148 -28 343 0 232 6 278 66 490 67
234 207 532 357 760 108 164 143 207 375 469 369 415 540 629 716 891 136 204
227 417 291 685 31 130 70 374 70 443 0 23 2 42 4 42 3 0 27 -42 55 -92z m750
-1256 c123 -245 194 -465 226 -698 25 -179 16 -495 -19 -660 -78 -366 -178
-532 -736 -1214 -565 -692 -703 -890 -853 -1230 -104 -237 -202 -564 -242
-813 l-18 -107 -19 30 c-79 131 -189 389 -237 555 -63 220 -76 310 -76 535 0
240 15 330 95 570 82 247 188 464 335 685 90 136 156 219 366 455 593 669 816
984 934 1321 72 205 128 466 142 658 l6 91 19 -30 c10 -17 45 -84 77 -148z"/>
</g>
</svg>
